<?xml version="1.0" standalone="no"?><!DOCTYPE svg PUBLIC "-//W3C//DTD SVG 1.1//EN" "http://www.w3.org/Graphics/SVG/1.1/DTD/svg11.dtd"><svg t="1682044720117" class="icon" viewBox="0 0 1024 1024" version="1.1" xmlns="http://www.w3.org/2000/svg" p-id="1925" xmlns:xlink="http://www.w3.org/1999/xlink" width="200" height="200"><path d="M511.8 510.2m-445 0a445 445 0 1 0 890 0 445 445 0 1 0-890 0Z" fill="#C2D44C" p-id="1926"></path><path d="M705.7 265.5l-376.5 81.1-125.5 121.7v162.3l41.8 142 179.6 174.1c25.7 5.1 52.1 7.9 79.1 8.4 168.9-2.8 318-97.2 395.7-227.1 36.2-64.4 56.9-138.7 56.9-217.8 0-7.4-0.2-14.8-0.5-22.1-3.7-3.2-32-28.3-250.6-222.6z" fill="#A1B400" p-id="1927"></path><path d="M708 678.4c-21.2 0-42.3 21-63.5 21s-21.2 0-21.2 21c-21.2 0-21.2 21-42.3 21v-21h-84.7v21H432.7v-21h-21.2v21h-42.4c-21.2 0-21.2 0-21.2-21 21.2-21 0-21 0-21-21.2 0-21.2 0-42.3-21-21.2 0-21.2 0 0 21 42.3 63 105.8 105.1 190.4 105.1h21.2v-42c-21.2 0 0 0 0 0h42.3v21c0 21 0 21 21.2 21 42.7-21.1 85-63.1 127.3-126.1zM538.8 573.3c84.6-21 126.9-63 190.4-84.1 21.2 0 21.2 0 21.2 21 21.2 42 0 126.1-84.6 126.1-63.5 0-84.6-21-126.9-42-0.1-21-21.3-21-0.1-21z m-84.6 0c-84.6-21-126.9-63-190.4-63h-21.2c-21.2 63 0 126.1 84.6 126.1 42.3 0 84.6-21 126.9-42 0.1-0.1 0.1-0.1 0.1-21.1zM517.6 174C200.3 237 158 426.2 179.2 615.3c0 189.1 190.4 273.2 380.7 252.2 465.3-84.1 275-735.5-42.3-693.5z" fill="#184F78" p-id="1928"></path><path d="M454.2 573.3S391 554 367 539s-104.8-40.9-124.4-28.7c0 0-26.1 90.2 35.9 114.2s123.5-7 123.5-7l52.1-23.1 0.1-21.1zM581 720.4h-84.7v21h-63.6v-21h-21.2v21l-54-2.4s-10.4-3.4-10-11l0.4-7.6s27.5-25.8-7.4-23.4c0 0-4.8 7.3-34.9-18.6 0 0-26.1-6.9-10.1 7.6s28 33 43 53 87.2 72 179.5 64l-0.8-40.5h42.3l1 28s-2.5 12.7 12.5 13.3 7.7 0.7 7.7 0.7S676 744.8 708 678.4c0 0-7-5.4-30.5 7.6s-14 12.3-33 13.4-19-1.9-20.5 6.6-29 30-29 30l-14 5.4v-21z" fill="#A1B402" p-id="1929"></path></svg>